<?xml version="1.0" encoding="UTF-8"?><svg id="Layer_2" xmlns="http://www.w3.org/2000/svg" viewBox="0 0 265.14 14.74"><defs><style>.cls-1{fill:#7f7f7f;stroke-width:0px;}</style></defs><g id="Layer_1-2"><path class="cls-1" d="m214.61.28h1.16c13.87,0,27.74,0,41.61,0,2.02,0,3.83.59,5.36,1.9,2.3,1.96,2.86,4.52,2.04,7.29-.85,2.89-3.1,4.34-5.97,4.89-.73.14-1.49.17-2.24.17-13.56,0-27.13,0-40.69.03-1.04,0-1.32-.26-1.3-1.3.06-3.9.03-7.8.03-11.71V.28Zm5.9,11.65c.31.02.52.03.72.03,11.17,0,22.34,0,33.51,0,.24,0,.48,0,.71-.02,1.65-.2,3.04-.8,3.58-2.54.43-1.36.42-2.73,0-4.1-.39-1.25-1.27-1.99-2.51-2.29-.65-.16-1.34-.23-2.02-.23-10.97-.01-21.93,0-32.9,0-.36,0-.72,0-1.1,0v9.15Z"/><path class="cls-1" d="m177.06.28v2.49h-1.22c-12.41,0-24.81,0-37.22,0-.34,0-.69-.03-1.02.01-1.62.18-3.17.58-3.72,2.35-.6,1.94-.72,3.92.68,5.6.86,1.03,2.16,1.23,3.45,1.23,3.58.01,7.16,0,10.74,0,9,0,18,0,27,0,.4,0,.81,0,1.28,0v2.52c-.37.02-.7.05-1.03.05-13.4,0-26.79,0-40.19,0-3.68,0-6.67-1.87-7.71-4.79-1.55-4.35,1.4-8.88,6.13-9.39.41-.04.82-.07,1.22-.07,13.53,0,27.06,0,40.6,0h1.01Z"/><path class="cls-1" d="m62.53.34h5.78c0,2.32-.02,4.58.01,6.85,0,.67.07,1.36.22,2.01.38,1.6,1.69,2.56,3.64,2.74.3.03.61.02.92.02,10.84,0,21.67,0,32.51,0,.3,0,.6-.02,1.01-.04V.35h5.77v14.12c-.32.02-.67.06-1.03.06-13.6,0-27.19,0-40.79,0-3.98,0-7.06-2.19-7.87-5.52-.02-.07-.05-.13-.05-.2-.04-.54-.11-1.08-.11-1.62-.01-2.26,0-4.53,0-6.85Z"/><path class="cls-1" d="m0,.34h5.72c0,1.88,0,3.71,0,5.53,0,.48,0,.95,0,1.43.04,3.21,1.49,4.66,4.72,4.66,11.83.01,23.66,0,35.49,0,.4,0,.81,0,1.29,0v2.52c-.36.02-.69.04-1.02.04-12.75,0-25.5,0-38.25,0-2.14,0-4.1-.6-5.73-2.05C.78,11.19,0,9.59,0,7.64,0,5.23,0,2.83,0,.34Z"/><path class="cls-1" d="m198.6,14.74h-5.52V0h5.52v14.74Z"/></g></svg>