<?xml version="1.0" encoding="UTF-8"?><svg id="Layer_2" xmlns="http://www.w3.org/2000/svg" viewBox="0 0 184.65 116.88"><defs><style>.cls-1{fill:#7f7f7f;stroke-width:0px;}</style></defs><g id="Layer_1-2"><path class="cls-1" d="m95.89,0c.23.04.46.1.69.11,3.01.07,6.01.07,9.02.2,2.95.12,5.9.32,8.85.54,2.61.2,5.21.43,7.8.76,3.35.42,6.66,1.09,9.78,2.46,5.24,2.3,8.42,6.33,9.58,11.87.51,2.43.7,4.93.88,7.41.19,2.61.26,5.24.24,7.85-.03,3.31-.14,6.63-.33,9.94-.17,2.92-.44,5.84-.76,8.74-.67,5.99-1.41,11.97-3.43,17.71-1.35,3.83-3.5,7.02-7.03,9.17-2.55,1.56-5.36,2.4-8.25,3.01-4.28.91-8.63,1.21-12.99,1.47-7.93.48-15.86.49-23.8.38-4.37-.06-8.74-.33-13.11-.55-4.05-.21-8.08-.61-12.02-1.59-2.92-.72-5.72-1.72-8.21-3.49-3-2.14-4.73-5.15-5.96-8.53-1.15-3.14-1.82-6.39-2.31-9.67-.48-3.22-.91-6.45-1.27-9.69-.28-2.55-.52-5.11-.6-7.67-.16-5.21-.3-10.43-.27-15.64.02-3.66.29-7.33,1.47-10.86,1.88-5.61,5.86-9.02,11.39-10.75,3.32-1.04,6.75-1.61,10.21-1.89,4.33-.35,8.66-.72,13-.96,3.22-.18,6.44-.15,9.66-.23.33,0,.66-.07.99-.11,2.26,0,4.52,0,6.78,0Zm-5,3.12v.2c-2.19,0-4.38-.04-6.57.01-2.57.06-5.14.14-7.71.32-3.18.22-6.37.46-9.54.84-2.61.31-5.23.69-7.77,1.32-5.75,1.42-9.53,4.93-10.85,10.83-.8,3.58-1,7.23-1.02,10.87-.03,5.16.05,10.34.3,15.49.18,3.71.69,7.4,1.1,11.09.4,3.62,1.07,7.19,2.19,10.66.81,2.52,1.86,4.94,3.66,6.94,2.15,2.38,4.92,3.7,7.97,4.47,4.34,1.1,8.79,1.44,13.24,1.7,4.03.24,8.07.37,12.11.42,8.63.12,17.26-.04,25.86-.81,3.03-.27,6.05-.66,8.99-1.46,4.77-1.31,8.24-4.11,10.15-8.77,1.64-4,2.42-8.2,2.99-12.44.37-2.75.67-5.52.89-8.29.29-3.54.58-7.09.67-10.63.09-3.63.03-7.26-.14-10.89-.12-2.58-.38-5.17-.85-7.71-.97-5.25-3.94-8.93-9.02-10.83-2.67-1-5.44-1.52-8.25-1.8-4.7-.48-9.42-.9-14.14-1.15-4.75-.25-9.52-.27-14.28-.38Z"/><path class="cls-1" d="m184.65,116.13h-17.98v-2.72c.79-.1,1.59-.22,2.39-.3,1.37-.14,1.67-.85,1.02-2.05-.55-1.01-1.24-1.34-2.39-1.31-3.58.09-7.17.04-10.75.02-.5,0-.8.14-1.01.58-.2.41-.48.77-.7,1.17-.43.78-.2,1.38.67,1.56.84.18,1.7.23,2.59.34v2.65h-13.28v-2.68c.78-.1,1.56-.23,2.34-.29.81-.06,1.42-.4,1.84-1.08,2.41-3.89,4.82-7.79,7.23-11.68.53-.85.13-1.82-.89-1.89-1.16-.08-2.32-.25-3.51-.39v-2.74c.26,0,.52,0,.77,0,4.86,0,9.72.04,14.58-.02,1.27-.02,2.05.48,2.71,1.5,3.13,4.83,6.32,9.61,9.42,14.46.79,1.23,1.72,1.94,3.18,1.96.6,0,1.19.1,1.79.16v2.74Zm-22.18-16.51c-1.34,2.18-2.64,4.31-3.97,6.47h8.22c-1.44-2.2-2.82-4.29-4.24-6.47Z"/><path class="cls-1" d="m21.27,116.22v-2.75c.89-.12,1.76-.24,2.64-.36.97-.13,1.49-.61,1.53-1.58.05-1.17.01-2.35.01-3.58h-12.85c0,1.34-.05,2.65.02,3.96.04.73.58,1.11,1.32,1.19.9.1,1.8.22,2.76.34v2.76H0c0-.83-.02-1.66.02-2.49,0-.12.27-.29.43-.32.73-.12,1.47-.19,2.21-.29,1.04-.14,1.55-.64,1.55-1.71.03-3.75.03-7.5,0-11.25,0-1.15-.6-1.67-1.75-1.77-.81-.07-1.61-.2-2.44-.3v-2.69h16.67v2.68c-.79.1-1.58.24-2.38.3-1.17.1-1.73.51-1.81,1.63-.08,1.17-.02,2.34-.02,3.56h12.96c0-1.32.05-2.62-.02-3.9-.04-.75-.69-1.19-1.58-1.28-.85-.09-1.7-.2-2.58-.31v-2.68h16.67v2.67c-.74.1-1.48.24-2.23.31-1.54.14-2,.61-2.01,2.19,0,3.27,0,6.54,0,9.81,0,.52.03,1.06.12,1.57.12.69.58,1.07,1.29,1.15.81.09,1.62.17,2.42.31.17.03.42.26.43.4.04.78.02,1.57.02,2.4h-16.72Z"/><path class="cls-1" d="m101.66,110.77c0-3.7,0-7.24,0-10.77,0-.96-.58-1.5-1.59-1.61-.85-.09-1.7-.2-2.63-.31.06-.97.11-1.87.17-2.82h13.24v2.75c-.9.12-1.78.24-2.65.36-1.06.14-1.5.63-1.5,1.72,0,4.06,0,8.13,0,12.19,0,1.25,0,2.5,0,3.79-.22.02-.4.06-.58.06-3.25,0-6.49-.02-9.74.01-.99.01-1.67-.37-2.25-1.14-3.4-4.5-6.82-8.99-10.23-13.48-.17-.23-.36-.44-.62-.76-.03.29-.07.47-.07.65,0,3.17,0,6.35,0,9.52,0,.67-.01,1.45.63,1.82.51.3,1.17.4,1.77.46,1.88.18,1.88.16,1.88,2.02,0,.31,0,.61,0,.97h-13.36v-2.75c.91-.12,1.83-.23,2.75-.36.87-.12,1.38-.65,1.38-1.54.01-3.85.01-7.69,0-11.54,0-1-.59-1.53-1.63-1.63-.83-.08-1.66-.19-2.51-.3v-2.72c.22-.01.41-.03.59-.03,4.64,0,9.28.02,13.93,0,.94,0,1.57.36,2.12,1.09,3.47,4.63,6.97,9.23,10.46,13.85.1.13.21.24.43.5Z"/><path class="cls-1" d="m112.5,98.07v-2.68c.21-.02.39-.05.58-.05,7.19,0,14.38-.02,21.58.04,2.19.02,4.33.47,6.35,1.38,3.41,1.53,5.41,4.08,5.73,7.88.28,3.3-.53,6.18-3.09,8.42-1.48,1.29-3.22,2.09-5.12,2.47-1.57.31-3.17.57-4.77.58-6.95.06-13.9.03-20.85.03-.21,0-.42,0-.67,0v-2.74c.78-.1,1.57-.22,2.37-.29,1.24-.11,1.78-.65,1.78-1.88,0-3.73,0-7.45,0-11.18,0-1.06-.42-1.53-1.47-1.67-.78-.1-1.57-.2-2.42-.31Zm12.01,14.15c2.69,0,5.31.07,7.93-.02,2.38-.08,3.82-1.24,4.38-3.35.49-1.86.52-3.75.13-5.63-.55-2.6-1.67-3.66-4.36-3.83-2.63-.17-5.28-.08-7.91-.1-.04,0-.08.05-.16.09v12.84Z"/><path class="cls-1" d="m56,94.55c3.52.02,7,.35,10.29,1.69,3.23,1.31,5.65,3.45,6.49,6.97,1.28,5.36-1.23,9.94-6.54,12.05-3.45,1.37-7.06,1.65-10.73,1.62-3.48-.02-6.89-.39-10.11-1.78-3.13-1.35-5.44-3.5-6.23-6.94-1.12-4.93.95-9.21,5.49-11.45,2.32-1.15,4.81-1.7,7.38-1.92,1.32-.11,2.64-.16,3.95-.23Zm7.53,11.24s-.08,0-.12-.01c0-.43.03-.87,0-1.3-.25-2.7-1.31-4.83-4.38-5.59-1.74-.43-3.52-.46-5.29-.17-2.41.4-4.22,1.58-4.87,4.06-.5,1.9-.49,3.84-.05,5.76.5,2.22,1.9,3.56,4.06,4.09,2.05.51,4.15.5,6.2,0,2.16-.53,3.6-1.86,4.05-4.09.19-.91.27-1.84.39-2.76Z"/><path class="cls-1" d="m122.46,7.36c-.06,1.26-.11,2.36-.18,3.46-.23,3.69-.46,7.38-.71,11.07-.27,4-.56,8-.82,12-.17,2.56-.3,5.13-.47,7.69-.21,3.09-.45,6.18-.68,9.26-.16,2.27-.31,4.55-.48,6.82-.21,2.87-.45,5.74-.67,8.61-.16,2.03-.32,4.07-.48,6.1-.05.67-.14,1.34-.13,2.01,0,.46-.24.58-.61.61-1.77.15-3.54.34-5.31.43-1.36.07-2.73.01-4.08.01-.94-3.38-1.85-6.84-2.88-10.27-.47-1.57-1.11-3.1-1.79-4.6-1.03-2.28-2.93-3.38-5.34-3.74-2.75-.41-5.5-.55-8.26-.27-1.19.12-2.38.28-3.55.52-1.9.4-3.38,1.5-4.12,3.28-1.03,2.49-1.92,5.04-2.73,7.6-.73,2.32-1.28,4.7-1.89,7.06-.11.42-.26.6-.72.57-2.99-.21-5.99-.39-8.98-.62-.2-.02-.51-.36-.53-.58-.28-3.28-.51-6.55-.76-9.83-.32-4.19-.67-8.37-.97-12.56-.23-3.11-.4-6.23-.61-9.34-.27-3.98-.56-7.95-.83-11.93-.17-2.59-.3-5.18-.47-7.76-.22-3.35-.46-6.71-.68-10.06-.11-1.63-.21-3.26-.31-4.89-.01-.18.02-.37.04-.67,2.27-.14,4.51-.28,6.81-.43.47,2.1.89,4.16,1.38,6.19,2.15,8.99,4.29,17.98,6.52,26.94.42,1.68,1.12,3.31,1.91,4.86,1.52,3,4,4.85,7.34,5.44,3.91.69,7.85.68,11.76.06,4.23-.67,7.01-3.29,8.37-7.24,1.28-3.74,2.4-7.56,3.33-11.41,1.97-8.08,3.76-16.19,5.65-24.29.05-.2.27-.52.4-.51,2.15.1,4.3.24,6.55.38Z"/></g></svg>