<?xml version="1.0" encoding="UTF-8"?><svg id="Layer_2" xmlns="http://www.w3.org/2000/svg" viewBox="0 0 260.98 119.21"><defs><style>.cls-1{fill:#7f7f7f;stroke-width:0px;}</style></defs><g id="Layer_1-2"><path class="cls-1" d="m38.58,119.21v-26.37c1.48-.15,2.53-.25,3.94-.39v26.76h-3.94Z"/><path class="cls-1" d="m218.07,119.21v-26.25c2.16-.94,3.39-.69,3.35,2.06-.11,8.06-.14,16.12-.2,24.18h-3.15Z"/><path class="cls-1" d="m0,58.02c5.33-.05,10.66-.17,15.99-.08.86.01,1.71.96,2.57,1.47-.86.64-1.7,1.83-2.57,1.84-5.32.12-10.66-.03-15.98-.09v-3.14Z"/><path class="cls-1" d="m137.56,70.28c-2.92.85-4.49-.13-5.35-2.68-.66-1.96-1.6-3.83-2.45-5.73-.84-1.86-1.72-3.7-3.35-5.53,0,3.79-.11,7.58.04,11.37.1,2.54-.91,3.32-3.74,2.52,0-3.45,0-7.06,0-10.68s0-7,0-10.49c3.61-1.16,5.57-.21,6.64,3.29.93,3.04,2.52,5.89,4.39,8.76v-12.08c1.39-.18,2.46-.32,3.81-.49v21.74Z"/><path class="cls-1" d="m183.6,59.6c.02,7.95-3.24,11.67-9.66,11.03-.26-.03-.53-.02-.78-.07-5.35-1.02-7.78-6.91-6.27-15.25.88-4.87,5.14-7.67,10.18-6.7,4.4.85,6.51,4.41,6.53,10.98Zm-3.92.17c.04-5.48-1.43-8.01-4.61-7.99-3.13.03-4.72,2.78-4.65,8.05.07,5.12,1.62,7.61,4.71,7.59,3.11-.02,4.51-2.37,4.54-7.66Z"/><path class="cls-1" d="m228.29,59.78c-.02,7.63-3.63,11.54-9.99,10.83-.39-.04-.79-.05-1.17-.15-4.7-1.24-7.35-7.83-5.86-14.54,1.23-5.53,4.84-8.14,10.13-7.32,4.45.7,6.9,4.67,6.88,11.17Zm-3.94-.13c0-.39,0-.78,0-1.17-.12-4.47-1.82-6.95-4.84-6.65-3.97.39-4.4,3.43-4.55,6.57-.02.39,0,.78,0,1.17,0,5.45,1.55,7.96,4.87,7.85,3.13-.1,4.53-2.51,4.53-7.77Z"/><path class="cls-1" d="m94.08,70.11c-5.01,1.82-4.16-2.48-5.74-5.04-1.26,0-2.93.1-4.58-.03-2.02-.16-3.21.47-3.49,2.62-.33,2.59-1.81,3.53-4.69,2.5,2.11-6.71,4.16-13.45,6.43-20.12.24-.7,1.82-1.35,2.74-1.31,1.08.05,2.82.65,3.08,1.41,2.23,6.6,4.2,13.29,6.25,19.97Zm-11.92-8.62h5.37c-.86-2.93-1.65-5.58-2.76-9.34-1.05,3.76-1.79,6.4-2.62,9.34Z"/><path class="cls-1" d="m49,56.63c-1.87-1.23-3-2.06-4.21-2.73-1.4-.77-2.96-2.08-4.29-1.9-1.34.17-3.36,1.74-3.54,2.93-.48,3.12-.69,6.51.06,9.52.92,3.68,5.24,4,7.68,1.05.88-1.06,2.16-1.79,3.81-3.11.12,4.93-1.71,7.41-5.12,8.15-4.33.94-9.02-.59-9.78-4.34-.87-4.27-.84-8.99.03-13.26.74-3.63,5.11-5.17,9.42-4.3,3.56.72,5.66,2.93,5.94,7.98Z"/><path class="cls-1" d="m42.41.3v26.08c-2.57.85-3.66.24-3.61-2.54.12-7.04.12-14.08,0-21.12-.04-2.67,1.14-3.12,3.61-2.41Z"/><path class="cls-1" d="m221.22.24v26.01c-2.06.88-3.35.79-3.32-2.03.06-7.28.08-14.56,0-21.85-.03-2.67,1.33-2.54,3.33-2.13Z"/><path class="cls-1" d="m260.98,59.25c-.92.7-1.81,1.96-2.76,2-4.58.21-9.18.18-13.77.02-.83-.03-1.62-1.06-2.44-1.63.79-.59,1.57-1.66,2.37-1.68,5.22-.15,10.45-.08,15.67-.08l.91,1.37Z"/></g></svg>