<?xml version="1.0" encoding="UTF-8"?><svg id="Layer_2" xmlns="http://www.w3.org/2000/svg" viewBox="0 0 270.28 52.02"><defs><style>.cls-1{fill:#7f7f7f;stroke-width:0px;}</style></defs><g id="Layer_1-2"><path class="cls-1" d="m167.06,52.02c.9-2.33,1.7-4.71,2.73-6.98,4.9-10.73,9.87-21.43,14.83-32.14.24-.52.63-1.36.97-1.37,2.73-.1,5.47-.05,8.21,0,.95.02,2.01.46,2.84.18,3.91-1.33,9.52-1.64,11.82,1.32,2.5,3.21,2.1,6.75.99,9.95-2.73,7.84-7.29,14.55-15.2,18.04-4.19,1.85-8.7,2.05-12.51-1.39-2.04,4.1-4.11,8.24-6.17,12.38h-8.51Zm33.4-31.51c-.05-2.53-1.21-3.94-3.22-3.76-2.84.26-5.55,1.07-6.92,3.97-1.84,3.92-3.71,7.83-5.46,11.79-.89,2.02.12,3.59,2.32,3.54,1.36-.03,2.91-.23,4.03-.91,5.61-3.45,8.03-8.92,9.25-14.63Z"/><path class="cls-1" d="m270.28,16.63c-3.1,7.2-6.27,14.39-9.28,21.63-.89,2.13-2.05,3.24-4.51,2.96-1.89-.22-3.82-.04-6.2-.04,2.39-5.37,4.56-10.25,6.72-15.13.87-1.98,1.78-3.94,2.54-5.96.69-1.84-.55-3.41-2.41-2.85-3.06.91-5.92,1.96-7.31,5.51-2.21,5.64-4.93,11.09-7.56,16.56-.38.79-1.42,1.7-2.23,1.78-2.44.23-4.91.08-7.8.08.53-1.26.89-2.2,1.31-3.12,3.57-7.89,7.19-15.77,10.69-23.69.84-1.89,1.87-2.91,4.1-2.62,1.65.22,3.36-.03,5.04.09.48.03.93.61,1.33.9,2.72-.59,5.68-1.62,8.7-1.79,3.46-.2,5.84,1.8,6.87,5.17v.53Z"/><path class="cls-1" d="m131.39,21.71c1.59-2.91.3-5.43-3.5-4.98-2.57.3-5.16,1.44-7.45,2.71-2.18,1.21-2.02,1.5-4.71-.56,1.79-1.64,3.37-3.4,5.24-4.75,4.81-3.48,10.23-4.39,15.94-2.83,4.12,1.13,5.87,4.65,4.25,8.52-2.81,6.71-5.79,13.35-8.78,19.99-.28.63-1.09,1.48-1.63,1.46-2.67-.09-5.32-.47-7.99-.67-.63-.05-1.3.15-1.94.3-1.43.33-2.83.93-4.27,1.02-4.07.25-7.71-.51-9.16-5.43-5.91,5.74-13.12,5.83-20.41,5.45-5.11-.27-10.02-6.85-9.19-12.1C80.13,14.92,93.26,1.82,108.16.15c3.76-.42,7.1.03,10.32,1.7,3.14,1.62,4.51,5.46,2.83,8.52-.63,1.14-2.37,1.67-3.84,2.63-.99-5.57-3.66-7.22-8.6-6.29-10.96,2.06-17.91,10.12-19.92,20.27-1.47,7.41,4.28,9.45,10.47,8.52,3.68-.55,6.9-2.41,9.49-5.21,3.65-3.96,7.49-7.79,13.17-8.5,2.96-.37,6.01-.07,9.31-.07Zm-2.52,6c-1.52,0-2.7.18-3.8-.03-3.27-.65-6.4,2.77-7.31,5.58-.2.6.2,1.82.72,2.15,1.71,1.08,6.96-.38,7.87-2.12.88-1.67,1.57-3.43,2.53-5.57Z"/><path class="cls-1" d="m77.1,7.99c-5.65,3.22-11.38,6.31-16.92,9.71-6.73,4.14-13.46,8.31-19.84,12.95-3.14,2.28-5.46,5.66-8.23,8.46-.6.6-1.54,1.22-2.33,1.23-9.3.08-18.61.05-27.91.04-.33,0-.67-.13-1.87-.37,1.31-1.04,2.06-1.9,3.01-2.33,8.16-3.7,16.34-7.37,24.55-10.95,9.49-4.13,19.03-8.14,28.53-12.22,10.22-4.39,20.43-8.81,30.65-13.19.68-.29,1.48-.29,2.45.14-2.13,2.38-4.24,4.78-6.39,7.14-4.22,4.62-7.78,9.69-9.75,15.65-1.59,4.82-1.91,9.72,1.28,14.16,1.3,1.81.35,2.45-1.24,2.48-5.85.09-11.7.12-17.54-.06-.8-.02-1.98-1.16-2.28-2.02-1.25-3.64-.03-7.12,2.25-9.76,4.23-4.88,8.85-9.44,13.54-13.91,2.58-2.46,5.61-4.44,8.44-6.64-.14-.16-.27-.33-.41-.49Z"/><path class="cls-1" d="m229.55,22.28c.85-4.96-.8-6.65-5.45-5.48-1.8.45-3.56,1.4-5.1,2.47-1.66,1.16-3.05,1.79-4.83-.21,3.16-4.15,7.01-7.22,12.37-8.24,4.1-.78,8.04-.83,11.46,2.05,1.97,1.66,2.54,3.72,1.55,6.09-2.91,6.94-5.85,13.87-8.86,20.77-.24.56-1.13,1.22-1.69,1.19-2.6-.13-5.2-.74-7.79-.67-1.74.05-3.45.99-5.19,1.45-4.06,1.07-8.35-.56-9.66-3.63-1.1-2.57-.3-4.9.91-7.2,3.51-6.7,13.08-11.18,20.64-8.95.49.14,1,.22,1.65.36Zm-3.02,5.59c-4.08-.55-7.71-.08-10.04,3.86-1.38,2.34-.56,3.92,2.09,3.95,4.86.04,6.83-2.04,7.94-7.8Z"/><path class="cls-1" d="m175.9,20.96c-.59-4.15-3.23-5.35-7.44-4.21-.59.16-1.29.3-1.68.7-.88.89-1.6,1.94-2.38,2.93.93.61,1.85,1.23,2.78,1.83.14.09.32.16.49.19,3.13.53,6.46,1.38,7.17,4.76.72,3.42-.96,6.55-3.41,9.17-4.98,5.34-11.38,6.27-18.13,5.55-4.24-.45-6.63-4.42-5.22-8.53.34-1,2.36-1.43,3.74-2.19.69,4.37,1.04,4.7,5.39,5.45,2.28.39,6.13-1.74,7.26-3.74.92-1.64-.26-2.07-1.25-2.46-1.6-.64-3.31-.98-4.93-1.59-4.02-1.52-5.39-4.14-3.81-7.9,3.05-7.22,13.7-12.84,22.03-9.51,2.6,1.04,4.37,4.71,3.16,7.24-.49,1.01-2.24,1.42-3.78,2.31Z"/><path class="cls-1" d="m133.97,41.11c4.24-9.2,8.23-17.84,12.2-26.48,1.85-4.02,3.62-8.07,5.52-12.06.26-.55,1.09-1.16,1.68-1.19,2.54-.13,5.09-.06,8.01-.06-1.28,2.98-2.37,5.68-3.58,8.32-4.5,9.84-9.09,19.65-13.52,29.52-.7,1.56-1.56,2.06-3.17,1.98-2.2-.11-4.4-.03-7.14-.03Z"/></g></svg>