<?xml version="1.0" encoding="UTF-8"?><svg id="Layer_2" xmlns="http://www.w3.org/2000/svg" viewBox="0 0 261.5 88.61"><defs><style>.cls-1{fill:#7f7f7f;stroke-width:0px;}</style></defs><g id="Layer_1-2"><path class="cls-1" d="m261.5,88.46c-.85-.01-1.7.01-2.54-.05-.26-.02-.61-.22-.75-.44-.52-.83-.99-1.69-1.43-2.56-.19-.37-.42-.48-.82-.47-.69.03-1.39,0-2.14,0v3.47c-.86,0-1.65.02-2.44-.03-.11,0-.28-.38-.29-.58-.02-1.83-.01-3.66-.01-5.49,0-1.93,0-3.87,0-5.88.9,0,1.74-.02,2.58,0,1.39.03,2.79,0,4.17.16,1.72.21,2.99,1.44,3.27,2.93.39,2.09-.26,3.78-1.84,4.77-.07.05-.14.1-.29.2.85,1.28,1.69,2.55,2.54,3.82v.13Zm-7.68-5.75c1.05,0,2.05.04,3.05-.01.99-.05,1.7-.82,1.76-1.77.07-1.18-.43-1.96-1.54-2.12-1.06-.15-2.15-.13-3.26-.19v4.09Z"/><path class="cls-1" d="m162.47,37.92c-6.68-.04-12.43-1.79-17.86-4.7-4.25-2.28-8.17-5.05-11.79-8.23-4.28-3.76-8.45-7.65-12.69-11.46-3.68-3.31-7.56-6.34-12.15-8.33-3.09-1.34-6.31-2.04-9.67-2.04-6.93-.01-13.33,4.97-15.04,11.67-2.27,8.95,3.25,17.79,12.3,19.64,2.32.48,4.67.34,7.01.07,6.96-.79,12.7-4.13,17.98-8.48.42-.35.83-.7,1.26-1.03.7-.54,1.59-.46,2.17.18.53.6.52,1.63-.11,2.18-5.71,4.93-11.94,8.88-19.58,10.09-3.78.6-7.58.79-11.27-.5-7.09-2.48-11.56-7.39-12.85-14.79-1.72-9.81,4.37-19.02,13.98-21.58,2.49-.66,5.02-.7,7.57-.51,8.62.63,15.9,4.44,22.67,9.47,3.87,2.87,7.39,6.15,10.93,9.4,2.88,2.65,5.75,5.32,8.74,7.85,3.5,2.95,7.32,5.42,11.75,6.83,2.74.87,5.55,1.33,8.41,1.08,6.61-.56,12.25-5.02,13.96-11.72,2.28-8.97-3.28-17.69-12.4-19.56-2.5-.51-5.02-.33-7.53.03-6.44.92-11.83,4.07-16.84,8-.56.44-1.11.91-1.68,1.35-.83.64-1.8.54-2.36-.2-.54-.72-.36-1.63.43-2.28,2.92-2.41,5.97-4.63,9.32-6.42,3.69-1.97,7.61-3.18,11.77-3.69,4.33-.53,8.51-.16,12.4,1.92,5.62,3,9.04,7.64,10.04,13.98,1.55,9.81-5.04,19.15-14.61,21.33-.53.12-1.06.24-1.6.29-1.04.09-2.08.14-2.67.17Z"/><path class="cls-1" d="m99.82,88.39h-2.68v-4.62h-5.42c0,.61,0,1.23,0,1.85,0,.78-.01,1.57,0,2.35,0,.34-.12.47-.46.46-.72-.02-1.43,0-2.2,0v-11.93h2.62v4.89h5.41v-4.91h2.72v11.92Z"/><path class="cls-1" d="m185.7,76.46h9.05v2.19h-6.32v2.6h5.67v2.23h-5.66v2.73h6.45v2.17h-9.2v-11.91Z"/><path class="cls-1" d="m229.28,88.42c-.87,0-1.68.02-2.48-.02-.17,0-.4-.2-.49-.37-.24-.46-.44-.94-.6-1.44-.12-.36-.29-.51-.69-.5-1.53.03-3.05.02-4.58,0-.36,0-.55.09-.66.44-.17.51-.38,1.01-.62,1.5-.08.16-.28.36-.43.37-.8.04-1.6.02-2.49.02.6-1.39,1.16-2.69,1.72-4,1.07-2.46,2.16-4.91,3.2-7.39.21-.49.46-.65.96-.6.41.04.84.06,1.24,0,.7-.12.97.23,1.22.82,1.47,3.52,2.98,7.01,4.48,10.52.08.19.13.4.22.65Zm-6.54-9.14c-.66,1.63-1.25,3.08-1.86,4.57h3.71c-.61-1.51-1.2-2.96-1.85-4.57Z"/><path class="cls-1" d="m66.26,78.04c-.51.65-.99,1.26-1.51,1.92-.19-.14-.37-.28-.55-.41-2.15-1.56-4.93-1.07-6.08,1.08-.82,1.54-.5,3.45.82,4.63,1.45,1.31,3.11,1.18,4.6.43.14-.07.23-.35.23-.53.02-.91.01-1.82.01-2.77h2.3c.02.17.05.33.05.5,0,.96,0,1.92,0,2.87,0,1.48,0,1.47-1.41,2.06-2.15.91-4.32,1.14-6.48.07-2.49-1.24-3.58-3.77-3.29-6.07.36-2.9,2.24-4.89,4.95-5.39,2.35-.44,4.47.07,6.35,1.6Z"/><path class="cls-1" d="m152.4,76.44c.89,0,1.67-.02,2.44.02.17,0,.39.22.5.39.84,1.44,1.67,2.9,2.5,4.35.09.16.2.32.36.58.63-1.12,1.22-2.16,1.81-3.21.33-.59.62-1.19.98-1.76.11-.18.39-.33.6-.35.72-.04,1.44-.02,2.27-.02-.14.3-.24.54-.36.77-1.22,2.27-2.46,4.53-3.66,6.82-.2.38-.3.85-.32,1.29-.05,1-.01,2-.01,3.05h-2.64c0-1.02.03-2.03-.01-3.04-.02-.39-.11-.82-.29-1.17-1.35-2.54-2.73-5.07-4.17-7.72Z"/><path class="cls-1" d="m125.48,88.38v-9.61h-3.62v-2.28h9.88v2.25h-3.59v9.64h-2.66Z"/><path class="cls-1" d="m0,88.38v-11.9h2.68v9.6h5.1v2.31H0Z"/><path class="cls-1" d="m32.62,76.48c0,.39,0,.74,0,1.08,0,3.39-.01,6.78.01,10.17,0,.54-.15.73-.7.69-.65-.04-1.3-.01-1.98-.01v-11.94h2.67Z"/></g></svg>