<?xml version="1.0" encoding="UTF-8"?><svg id="Layer_2" xmlns="http://www.w3.org/2000/svg" viewBox="0 0 173.32 102.76"><defs><style>.cls-1{fill:#7f7f7f;stroke-width:0px;}</style></defs><g id="Layer_1-2"><path class="cls-1" d="m173.32,96.17c-1.35-.15-2.7-.3-4.38-.48,0-2.41,0-4.76,0-7.11,0-1.45-.11-2.84-2.03-2.96-1.88-.11-2.75,1.1-2.86,2.68-.17,2.36-.04,4.74-.04,7.04-4.07,1.09-4.43.84-4.43-2.85,0-3.29,0-6.57,0-10.54,1.74.41,3.1.78,4.47,1.03.44.08.97-.08,1.4-.27,3.53-1.56,5.37-1.13,7.88,1.87v11.6Z"/><path class="cls-1" d="m119.66,32.9c.03,18.18-14.77,33.19-32.83,33.28-18.24.09-33.51-14.84-33.44-32.98C53.46,14.27,68.81-.75,88.19.03c16.51.66,31.47,14.74,31.47,32.87Zm-33.1,28.53c15.81,0,28.7-12.86,28.59-28.53-.1-15.54-13.01-28.35-28.62-28.38-15.61-.04-28.41,12.75-28.44,28.42-.03,15.97,12.49,28.5,28.47,28.5Z"/><path class="cls-1" d="m0,73.67h4.95c1.77,5.17,3.57,10.48,5.66,16.6,1.18-3.43,2.1-6.13,3.03-8.83.51-1.47,1.01-2.95,1.52-4.42q1.37-3.95,6.22-3.11c-1.44,3.89-2.85,7.74-4.28,11.59-.92,2.49-1.9,4.96-2.78,7.46-.63,1.81-1.23,3.13-3.73,3.09-2.44-.04-3.1-1.26-3.76-3.12-1.96-5.52-4.03-11.01-6.04-16.52-.31-.84-.5-1.72-.8-2.74Z"/><path class="cls-1" d="m124.54,96.87c1.47.6,2.9,1.34,4.41,1.77,1.14.32,2.87.79,3.49.25,1.02-.91,1.36-2.58,1.99-3.93-.25-.14-.49-.27-.74-.41-.66.29-1.3.64-1.98.86-2.82.93-5.87.01-7.43-2.2-1.82-2.59-1.64-6.47.41-9.03,1.87-2.32,4.83-2.95,7.73-1.8.63.25,1.46-.04,2.2-.05,1.17-.02,2.33,0,3.7,0,0,4.92.14,9.59-.05,14.26-.11,2.67-1.66,4.67-4.28,5.56-3.04,1.02-6.05.97-8.56-1.29-.8-.72-1.15-1.93-1.7-2.91.27-.35.54-.7.81-1.06Zm9.8-7.66c.16-2.15-1.22-3.94-3.28-3.99-2.14-.05-3.46,1.05-3.68,3.25-.23,2.32.97,3.88,3.08,4.05,2.26.18,3.7-1.05,3.88-3.3Z"/><path class="cls-1" d="m95.3,90.74c.95-2.36,1.61-3.96,2.24-5.56q1.28-3.26,5.48-2.77c-1.91,4.31-3.67,8.56-5.69,12.68-.77,1.57-4.24.99-4.91-.71-.77-1.94-1.44-3.92-2.47-6.73-1.01,2.77-1.62,4.82-2.54,6.72-.34.71-1.42,1.45-2.17,1.47-1.02.02-2.65-.36-2.99-1.06-1.92-3.93-3.54-8.01-5.26-12.04,3.64-1.22,4.14-.99,5.4,2.31.68,1.77,1.36,3.54,2.28,5.91.93-2.67,1.76-4.76,2.37-6.92.44-1.56,1.37-1.9,2.84-1.87,1.49.03,2.63.13,3.09,1.91.53,2.01,1.35,3.93,2.32,6.68Z"/><path class="cls-1" d="m52.76,90.8c-.07,1.51-.14,3.01-.22,4.86-1.33.06-2.63.13-4.12.2v-23.24h4.19v14.77c2.97-2.66,4.47-7.11,9.29-4.68-1.23,1.47-2.59,2.83-3.6,4.42-.43.68-.47,2.05-.05,2.72,1.18,1.93,2.68,3.67,4.08,5.52-5.31,2.53-6.71-1.95-8.93-4.88l-.63.32Z"/><path class="cls-1" d="m119.46,82.36v13.4c-1.29,0-2.45,0-3.61,0-.91,0-1.89-.22-2.72.05-3.27,1.06-6.17.33-7.87-2.17-1.73-2.54-1.55-7.18.39-9.61,1.78-2.23,5.05-2.81,8.05-1.56.53.22,1.27-.09,1.92-.1,1.18-.02,2.37,0,3.84,0Zm-7.2,10.54c1.77-.15,2.95-1.27,3.01-3.48.07-2.3-1.22-3.8-3.33-3.81-2.27-.02-3.34,1.23-3.41,3.4-.07,2.25,1.3,3.83,3.73,3.89Z"/><path class="cls-1" d="m28.32,81.78c4.61-.02,7.72,2.82,7.75,7.09.04,4.36-3.15,7.38-7.81,7.38-4.48,0-7.65-3-7.64-7.25,0-4.2,3.2-7.2,7.7-7.22Zm.08,3.51c-2.02-.02-3.45,1.56-3.43,3.77.02,2.2,1.23,3.4,3.3,3.64,2.03.23,3.51-1.37,3.55-3.61.04-2.22-1.36-3.77-3.41-3.79Z"/><path class="cls-1" d="m155.82,90.06h-9.53c.81,2.8,3.04,4.01,5.2,2.56,1.8-1.21,2.78-.64,3.95.56-2.12,3.07-6.65,4.12-9.96,2.31-3.15-1.72-4.43-5.64-3.05-9.32,1.31-3.47,4.94-5.21,8.82-4.24,3.37.84,5.17,3.93,4.56,8.13Zm-4.32-2.73c.15-.32.29-.63.44-.95-1.08-.53-2.17-1.49-3.24-1.47-.87.02-1.71,1.2-2.57,1.87.15.18.29.36.44.55h4.93Z"/><path class="cls-1" d="m64.32,93.19c1.69-1.04,3.14-1.82,4.82-.28.26.24,1.23-.28,1.87-.45-.33-.47-.55-1.12-1-1.36-1.13-.61-2.43-.9-3.52-1.55-2.2-1.29-2.63-3.67-1.17-5.68,2.28-3.14,7.74-2.7,10.01,1.46h-6.57c-.09.23-.17.45-.26.68.83.5,1.62,1.1,2.51,1.48,2.13.92,4.47,1.61,4.32,4.62-.12,2.47-1.85,3.5-3.93,3.97-3.42.78-5.57-.12-7.08-2.88Z"/><path class="cls-1" d="m40.02,72.51h3.94v23.25c-1.31.06-2.47.11-3.94.17v-23.42Z"/><path class="cls-1" d="m94.56,44.07c-1.39-3.11-2.71-5.71-3.7-8.43-.73-2.01-2.18-1.98-3.76-1.84-1.76.16-3.89-.87-4.87,1.83-1,2.74-2.35,5.35-3.79,8.58-1.58-3.52-2.91-6.5-4.24-9.47-2.02-4.52-3.98-9.08-6.09-13.56-.7-1.48-.64-2.58.59-3.66,1.76-1.55,3.48-3.14,5.55-5.01,2.71,6.03,5.38,11.44,7.55,17.06,1.05,2.71,2.79,2.51,4.94,2.63,2.29.12,3.63-.39,4.57-2.73,2.26-5.59,4.86-11.05,7.34-16.61.64.35,1.07.54,1.45.8,5.88,4.02,6.08,4.79,3.18,11.24-2.41,5.36-4.77,10.74-7.17,16.1-.4.89-.87,1.74-1.55,3.08Z"/><path class="cls-1" d="m76.65,54.21c-10.46-4-16.79-18.29-12.59-27.69.25.33.53.58.67.89,3.91,8.77,7.81,17.54,11.92,26.79Z"/><path class="cls-1" d="m96.35,54.29c4.27-9.56,8.32-18.62,12.47-27.92,3.89,8.16-.61,23.13-12.47,27.92Z"/><path class="cls-1" d="m86.54,26.09c-2.5-5.6-4.65-10.42-6.8-15.23,3.45-1.89,9.28-1.96,13.61-.11-2.17,4.88-4.34,9.76-6.81,15.33Z"/><path class="cls-1" d="m86.54,39.98c2.45,5.52,4.63,10.42,6.91,15.57-4.69,1.56-9.04,1.42-13.85.06,2.26-5.07,4.45-10.01,6.94-15.62Z"/></g></svg>