<?xml version="1.0" encoding="UTF-8"?><svg id="Layer_2" xmlns="http://www.w3.org/2000/svg" viewBox="0 0 162.45 135.24"><defs><style>.cls-1{fill:#7f7f7f;stroke-width:0px;}</style></defs><g id="Layer_1-2"><path class="cls-1" d="m86.02,0c1.04.2,2.08.43,3.13.58,5.72.81,11.55,1.16,17.15,2.48,13.68,3.22,26.13,8.92,35.44,19.95,3.98,4.71,6.94,10.06,8.04,16.22.56,3.15,1.19,6.37,1.11,9.53-.25,9.42-3.87,17.58-10.17,24.55-7.14,7.89-16.06,13-25.97,16.61-5.6,2.04-11.32,3.59-17.19,4.35-7.98,1.04-16,2.09-24.1.84-4.55-.7-9.21-.85-13.69-1.84-13.44-2.97-25.87-8.16-35.83-18.04-5.21-5.17-8.96-11.23-10.82-18.48-1.46-5.66-1.62-11.3-.35-16.87,2.39-10.54,8.45-18.72,17.13-25.06,6.9-5.04,14.55-8.38,22.74-10.72,7.46-2.13,15.07-3.17,22.77-3.77.52-.04,1.04-.22,1.55-.34,3.02,0,6.04,0,9.05,0Zm52.33,46.96c-.06-4.2-1.12-8.16-2.76-11.98-.59-1.38-1.04-1.49-2-.39-6.37,7.38-15.19,9.95-24.14,12.24-2.59.66-5.23,1.1-7.87,1.51-1.24.19-1.62.82-1.62,1.95-.03,6.09-.82,12.07-2.23,18-1.31,5.57-3.16,10.88-6.26,15.71-.23.36-.24.86-.35,1.3.44.1.92.35,1.32.27,3.77-.72,7.6-1.27,11.29-2.32,8.51-2.43,16.42-6.13,23.06-12.14,7.15-6.47,11.64-14.22,11.56-24.15Zm-113.77.84c-.15,3.93.84,7.9,2.63,11.68,3.09,6.54,7.94,11.52,13.85,15.53,8.94,6.07,19,9.04,29.56,10.6.35.05.95-.14,1.07-.39.14-.28-.04-.83-.25-1.15-4.66-7.18-6.63-15.25-7.77-23.57-.47-3.46-.61-6.96-.86-10.45-.07-.99-.36-1.56-1.48-1.7-2.02-.24-4.06-.49-6.02-1.01-3.85-1.03-7.72-2.08-11.47-3.42-5.58-1.99-10.81-4.64-14.65-9.41-.73-.91-1.29-.97-1.84.25-1.83,4.06-2.83,8.28-2.78,13.02ZM71.94,10.41c-.09-.2-.17-.39-.26-.59-1.66.27-3.31.62-4.98.79-5.4.57-10.57,1.99-15.61,3.93-3.5,1.35-6.88,2.93-9.53,5.71-1.99,2.09-2.05,4.32-.1,6.42.61.66,1.33,1.32,2.14,1.68,2.7,1.2,5.4,2.52,8.23,3.32,3.22.92,6.59,1.31,9.89,1.97,1.42.28,2.08-.29,2.26-1.69.16-1.21.47-2.4.68-3.61.82-4.49,2.25-8.78,4.33-12.84.89-1.74,1.96-3.39,2.95-5.09Zm19.35-.35c0,.35-.04.51,0,.65.08.26.17.52.32.74,4.35,6.21,6.23,13.3,7.35,20.65.16,1.05.54,1.73,1.77,1.53,2.53-.43,5.08-.73,7.58-1.28,4.12-.9,8.19-2.06,11.72-4.5,3.61-2.49,3.82-6.02.27-8.54-2.63-1.87-5.54-3.43-8.5-4.74-5.66-2.5-11.77-3.44-17.82-4.51-.86-.15-1.78-.02-2.69-.02Zm-17.62,39.77c.54,3.68.78,7.23,1.63,10.63.7,2.81,1.86,5.58,3.26,8.12,1.53,2.77,3.91,2.67,5.74.09.28-.39.54-.8.77-1.22,1.9-3.54,2.73-7.4,3.34-11.32.32-2.04.46-4.11.7-6.31h-15.43Zm.79-15.11c4.56,0,8.73.02,12.9-.05.27,0,.8-.78.76-1.15-.17-1.37-.41-2.74-.83-4.06-.83-2.64-1.55-5.36-3.57-7.42-1.69-1.73-3.06-1.75-4.63.08-3.02,3.51-3.66,7.91-4.63,12.6Z"/><path class="cls-1" d="m0,107.96c7.26,0,14.53-.02,21.79-.02.21,0,.41.07.58.1.09.14.19.23.19.32q.28,3.86-3.52,3.86c-1.02,0-2.05.06-3.07-.02-1.35-.1-1.79.46-1.77,1.78.05,6.08.03,12.15.03,18.23q0,2.24-2.31,2.25-3.19,0-3.19-3.26c0-5.65-.06-11.3.04-16.94.03-1.69-.56-2.14-2.14-2.07-2.2.1-4.41,0-6.61-.02v-4.2Z"/><path class="cls-1" d="m53.06,120.95c-.06,8.74-7.12,14.32-14.03,14.29-7.25-.03-14.18-5.04-14.33-14.34-.13-7.81,6.17-14.47,14.86-14.17,7.04.24,13.57,6.12,13.51,14.22Zm-5.68-.13c-.28-1.19-.48-2.4-.84-3.56-1.29-4.07-5.96-6.57-9.67-5.47-7.09,2.11-7.95,12.18-3.2,16.41,1.73,1.54,3.78,2.49,6.16,2.09,4.84-.83,7.48-5.47,7.55-9.46Z"/><path class="cls-1" d="m81.61,120.91c-.13-7.6,6.13-14.59,14.81-14.16,7.81.38,13.69,6.44,13.57,14.22-.13,8.36-6.07,14.11-14.27,14.26-7.03.13-14.05-5.35-14.12-14.32Zm5.69.07c.42,1.53.6,3.18,1.3,4.57,2.65,5.3,8.97,6.61,13.08,1.86,3.13-3.62,3.17-9.2.14-12.9-2.84-3.46-7.46-4.08-10.87-1.29-2.37,1.94-3.55,4.54-3.65,7.76Z"/><path class="cls-1" d="m133.23,134.45c2.01-4.78,3.89-9.25,5.78-13.71,1.64-3.88,3.33-7.74,4.9-11.65.37-.93.85-1.22,1.78-1.18,1.4.06,2.82.15,4.19-.02,1.51-.19,2.17.48,2.68,1.76,3.09,7.73,6.24,15.43,9.36,23.15.19.47.32.97.53,1.64-2,0-3.78.11-5.54-.06-.55-.05-1.22-.75-1.5-1.32-.54-1.09-.74-2.35-1.3-3.43-.28-.55-1.03-1.19-1.59-1.21-3.12-.12-6.24-.1-9.36-.02-.46.01-1.08.55-1.31,1.01-.63,1.29-1.02,2.69-1.66,3.98-.23.47-.88.98-1.37,1.01-1.76.12-3.53.05-5.6.05Zm18.99-10.31c-1.45-3.52-2.33-6.92-4.02-9.97-.15.03-.31.06-.46.09-1.23,3.22-2.45,6.44-3.76,9.88h8.24Z"/><path class="cls-1" d="m80.35,107.92c-2.86,4.52-5.41,8.84-8.27,12.96-1.61,2.32-2.45,4.65-2.15,7.46.16,1.49-.01,3.01.05,4.52.05,1.14-.29,1.62-1.54,1.62-4.1.02-4.35.05-4.03-4.04.34-4.42-.8-8.13-3.45-11.66-2.25-2.99-4.08-6.29-6.09-9.46-.25-.39-.45-.82-.78-1.4,2.07,0,3.95-.08,5.81.05.47.03,1.05.64,1.33,1.12,1.91,3.27,3.75,6.58,5.77,10.15.5-.61.94-1.03,1.25-1.53,1.76-2.88,3.53-5.75,5.2-8.67.5-.88,1.07-1.19,2.05-1.14,1.5.07,3.01.02,4.86.02Z"/><path class="cls-1" d="m112.21,108h22.46c.1.16.19.25.2.34q.17,3.88-3.7,3.88-4.61,0-4.61,4.64c0,5.22-.04,10.44.03,15.66.02,1.41-.28,2.01-1.86,1.98-3.92-.09-3.92-.01-3.91-3.95,0-5.49-.04-10.98.03-16.47.02-1.5-.47-1.99-1.95-1.89-1.77.12-3.55-.02-5.33.05-1.06.04-1.46-.34-1.37-1.4.07-.89.02-1.8.02-2.84Z"/></g></svg>