<?xml version="1.0" encoding="UTF-8"?>
<svg data-bbox="0 0 414.54 164.37" viewBox="0 0 414.54 164.37" xmlns="http://www.w3.org/2000/svg" data-type="color">
    <g>
        <path d="m100.7 86.3 2.34-25.5c0-25.51-18.55-46.68-42.89-50.78L51.52 0l-8.63 10.02C18.55 14.13 0 35.29 0 60.8l2.33 25.47 13.12 13.76.26 2.77L2.85 91.89l.27 2.97 13.12 13.77.26 2.77-12.87-10.91.56 6.16c.81 8.88 4.65 17.22 10.87 23.62L41.9 157.9l-6.16-70.89-18.8-10.25a9.767 9.767 0 0 1-5.06-7.86l-.4-5.53 28.49 8.09a7.785 7.785 0 0 1 5.59 8.59l-2.95 21.02 8.89 8.46 8.89-8.46-2.95-21.02a7.81 7.81 0 0 1 5.59-8.59l28.49-8.09-.4 5.53a9.744 9.744 0 0 1-5.06 7.86l-18.8 10.25-6.16 70.89 26.84-27.63a39.012 39.012 0 0 0 10.87-23.62l.56-6.14-12.84 10.89.26-2.77 13.1-13.74.27-2.97-12.84 10.88.26-2.77 13.09-13.74Z" fill="#070909" data-color="1"/>
        <path fill="#070909" d="M401.51 32.4v48.49L368.92 32.4h-13.04v67.89h13.04V51.8l32.59 48.49h13.03V32.4h-13.03z" data-color="1"/>
        <path fill="#070909" d="M199.46 32.4v67.89h-13.03V32.4h13.03z" data-color="1"/>
        <path fill="#070909" d="M173.4 32.4h-52.14v9.97h19.55v57.92h13.04V42.37h19.55V32.4z" data-color="1"/>
        <path fill="#070909" d="M264.64 32.4H212.5v9.97h19.55v57.92h13.04V42.37h19.55V32.4z" data-color="1"/>
        <path d="M277.67 46.12v54.16h13.03V71.34h32.59v28.94h13.03V46.12c0-7.58-6.14-13.72-13.72-13.72h-31.22c-7.58 0-13.72 6.14-13.72 13.72Zm13.03 15.25V48.24c0-3.25 2.63-5.88 5.88-5.88h20.83c3.25 0 5.88 2.63 5.88 5.88v13.13H290.7Z" fill="#070909" data-color="1"/>
        <path d="M157.37 123.82c-.15.04-.29.09-.42.17-.13.08-.32.29-.56.65-.25.36-.59.9-1.04 1.64-.45.73-1.07 1.75-1.86 3.05-.79 1.3-1.79 2.94-2.99 4.91-1.21 1.98-2.67 4.38-4.4 7.2a59.908 59.908 0 0 0-2.46 4.46c-.62 1.28-1.08 2.35-1.38 3.22-.38 1.02-.62 1.92-.73 2.71-.11.6-.27 1.15-.48 1.64-.21.49-.4.92-.59 1.3-.23.41-.49.79-.79 1.13-.3.26-.53.39-.68.39s-.25-.07-.28-.2c-.04-.13-.06-.24-.06-.31v-.06a3.67 3.67 0 0 1-.17-1.13c0-.6.09-1.31.28-2.12a29.277 29.277 0 0 1 1.8-5.31c.41-.92.83-1.84 1.24-2.74.98-2.07 2.09-4.24 3.33-6.49a192.295 192.295 0 0 0 5.2-9.15c.71-1.36 1.35-2.62 1.92-3.78.07-.15.11-.24.11-.28s-.04-.06-.11-.06c-.04 0-.07 0-.08.03-.02.02-.05.03-.08.03-.04.04-.08.06-.11.06-2.37.38-4.23.62-5.56.73-1.34.11-2.32.17-2.96.17-.41 0-.82-.02-1.21-.06-.39-.04-.59-.19-.59-.45 0-.19.17-.52.51-.99.34-.47.83-.74 1.47-.82h1.55c.4 0 .84.02 1.33.06.41 0 1.17-.05 2.26-.14 1.09-.09 2.65-.33 4.69-.7.04 0 .09-.02.17-.06.11-.07.21-.15.28-.23.11-.08.21-.23.28-.45.07-.23.16-.46.25-.71.09-.24.22-.46.37-.65s.36-.28.62-.28c.11 0 .42.11.93.34.51.23.93.58 1.27 1.07 0 .04.04.08.11.11.04.04.17.06.4.06 1.69-.34 3.29-.62 4.8-.85 1.32-.19 2.63-.37 3.95-.54 1.32-.17 2.35-.27 3.11-.31h.56c.34 0 .71.03 1.1.08.4.06.75.14 1.07.25.32.11.48.28.48.51s-.09.53-.28.9c-.19.38-.6.85-1.24 1.41 0 .04-.02.06-.06.06h-.23c-.19 0-.36-.04-.51-.11-.15-.04-.38-.09-.68-.17-.26-.04-.6-.08-1.02-.11-.41-.04-.94-.06-1.58-.06-1.02 0-2.35.08-4.01.23-1.66.15-3.73.4-6.21.73Z" fill="#4ea7f3" data-color="2"/>
        <path d="M157.41 149.46c-.41 0-.75-.13-1.02-.39-.26-.26-.47-.56-.62-.9-.15-.34-.25-.69-.31-1.04-.06-.36-.08-.63-.08-.82 0-.53.06-1.06.17-1.61.11-.55.26-1.03.45-1.44.15-.49.36-.96.62-1.41.26-.56.68-1.3 1.24-2.2.56-.9 1.21-1.79 1.95-2.65.73-.87 1.53-1.65 2.4-2.34.87-.7 1.77-1.14 2.71-1.33.3 0 .65.07 1.04.2.4.13.77.31 1.13.54.36.23.66.5.9.82.24.32.37.69.37 1.1 0 .26-.05.56-.14.87-.09.32-.29.69-.59 1.1-.53.75-1.21 1.45-2.03 2.09-.72.53-1.61 1.04-2.68 1.52-1.07.49-2.36.79-3.87.9-.04 0-.08.02-.11.06-.04.04-.08.07-.14.08-.06.02-.1.05-.14.08-.34.49-.64.96-.9 1.41-.23.41-.43.87-.62 1.36-.19.49-.28 1-.28 1.52 0 .38.05.63.14.76.09.13.39.2.88.2.08 0 .17-.02.28-.06.23-.07.4-.11.51-.11.23.08.34.17.34.28 0 .38-.08.66-.25.85-.17.19-.35.32-.54.39a1.8 1.8 0 0 1-.79.17Zm8.92-14.23c-.04-.19-.19-.28-.45-.28-.08 0-.14 0-.2.03-.06.02-.12.03-.2.03-.08.04-.15.06-.23.06-.75.45-1.46 1.01-2.12 1.67-.66.66-1.25 1.31-1.78 1.95-.6.72-1.15 1.49-1.64 2.31 0 .11.06.17.17.17.3 0 .8-.14 1.5-.42.7-.28 1.41-.68 2.15-1.19.73-.51 1.38-1.11 1.95-1.81.56-.7.85-1.48.85-2.34v-.17Z" fill="#4ea7f3" data-color="2"/>
        <path d="M172.68 150.25c-.41 0-.78-.07-1.1-.2-.32-.13-.48-.25-.48-.37 0-.08.04-.15.11-.23.04-.04.09-.06.17-.06.53-.11 1.05-.29 1.58-.54.53-.25 1.02-.52 1.47-.82.53-.3 1.03-.64 1.52-1.02.64-.49 1.14-.9 1.5-1.24.36-.34.63-.63.82-.88.19-.24.3-.44.34-.59.04-.15.06-.26.06-.34 0-.41-.36-.74-1.07-.99-.72-.24-1.5-.46-2.34-.65-.85-.19-1.62-.39-2.32-.59-.7-.21-1.04-.5-1.04-.88s.09-.7.28-.96c.19-.26.4-.49.65-.68s.52-.36.82-.51c.3-.15.56-.3.79-.45.49-.23 1.13-.54 1.92-.96.79-.41 1.56-.83 2.32-1.24.9-.45 1.84-.96 2.82-1.52 1.09-.64 1.9-1.04 2.43-1.21.53-.17.88-.25 1.07-.25.75 0 1.34.17 1.75.51.41.34.62.6.62.79 0 .08-.08.15-.23.23-.08.04-.13.06-.17.06-.41 0-.7.02-.85.06-.83.19-1.73.47-2.71.85-.87.3-1.85.73-2.96 1.3-1.11.56-2.31 1.26-3.59 2.09-.3.19-.55.38-.73.56-.19.19-.36.37-.51.54-.15.17-.23.33-.23.48-.04.19.25.37.88.54.62.17 1.32.39 2.09.65.77.26 1.48.6 2.12 1.02.64.41.98.96 1.02 1.64 0 .45-.33 1.01-.99 1.67-.66.66-1.45 1.3-2.37 1.92-.92.62-1.88 1.16-2.88 1.61-1 .45-1.85.68-2.57.68Z" fill="#4ea7f3" data-color="2"/>
        <path d="M190.24 150.7c-.04.11-.11.35-.23.71-.11.36-.25.71-.4 1.07-.15.36-.33.69-.54.99-.21.3-.4.45-.59.45-.11 0-.21-.08-.28-.23-.08-.15-.13-.33-.17-.54-.04-.21-.07-.4-.08-.59-.02-.19-.03-.34-.03-.45 0-.53.06-1.09.17-1.69.11-.6.24-1.17.4-1.69.15-.6.34-1.19.56-1.75a73.966 73.966 0 0 1 2.31-4.8c.53-1.02 1.09-2.08 1.69-3.19.6-1.11 1.18-2.15 1.72-3.13s1.03-1.85 1.47-2.63c.43-.77.74-1.33.93-1.67.08-.15.13-.24.17-.28s.06-.07.06-.11l-.17-.17s-.08-.06-.11-.06c-1.02.11-1.94.19-2.77.23-.83.04-1.68.06-2.54.06-.41-.04-.77-.17-1.07-.4-.3-.23-.55-.49-.73-.79-.23-.34-.41-.72-.56-1.13 0-.04.02-.09.06-.17.08-.15.19-.23.34-.23s.38.08.68.23c.11.11.3.21.56.28.23.08.54.13.93.17.39.04.95.06 1.67.06 1.13 0 2.77-.11 4.91-.34.08.04.15.04.23 0 .08 0 .19-.07.34-.23.07-.07.42-.56 1.04-1.47.62-.9 1.27-2.01 1.95-3.33.41-.6.78-1.17 1.1-1.69.32-.53.67-.98 1.04-1.36.38-.38.83-.67 1.36-.87.53-.21 1.2-.31 2.03-.31h.06c.07 0 .11.06.11.17 0 .08-.04.21-.11.4-.08.19-.23.45-.45.79-.23.34-.54.77-.93 1.3-.4.53-.91 1.17-1.55 1.92-.38.49-.73.98-1.07 1.47-.3.41-.61.86-.93 1.33-.32.47-.57.88-.76 1.21 0 .19.11.28.34.28.34.04.75.02 1.24-.06.41-.04.92-.1 1.52-.2.6-.09 1.32-.23 2.15-.42.26-.04.54-.07.85-.11.26-.04.54-.06.82-.08.28-.02.57-.03.88-.03.49 0 .83.06 1.02.17.07.04.17.13.28.28.07.11.15.26.23.45.07.19.11.43.11.73 0 .08-.03.17-.08.28-.06.11-.12.17-.2.17-.15 0-.35-.05-.59-.14-.25-.09-.76-.14-1.55-.14-1.28 0-2.51.11-3.7.34-1.19.23-2.65.43-4.38.62-.04 0-.09.02-.17.06-.15.08-.25.15-.28.23-1.32 1.92-2.6 3.88-3.84 5.87-1.05 1.69-2.12 3.53-3.19 5.51-1.07 1.98-1.95 3.83-2.63 5.56-.19.3-.3.71-.34 1.24-.04.53-.13 1.15-.28 1.86Z" fill="#4ea7f3" data-color="2"/>
        <path d="M229.76 153.98c-.45 0-.75-.05-.9-.14-.15-.09-.23-.2-.23-.31 0-.15.06-.28.17-.39a.85.85 0 0 1 .17-.23c.53-.49 1.05-.79 1.55-.9.51-.11.91-.17 1.21-.17h.39c.19.08.35.11.48.11h.48c2.79-.3 5.23-.81 7.34-1.52 2.11-.72 3.88-1.43 5.31-2.15 1.69-.83 3.14-1.71 4.35-2.65.9-.6 1.62-1.17 2.14-1.69.53-.53.93-1.01 1.21-1.44.28-.43.46-.82.54-1.16.08-.34.11-.6.11-.79 0-.83-.35-1.57-1.05-2.23-.7-.66-1.46-1.28-2.29-1.86-.83-.58-1.59-1.14-2.29-1.67s-1.05-1.11-1.05-1.75c0-.3.13-.59.4-.88.26-.28.57-.54.93-.76.36-.23.71-.42 1.05-.59.34-.17.58-.29.73-.37.94-.45 2.02-1.04 3.25-1.78 1.22-.73 2.39-1.49 3.5-2.26 1.11-.77 2.05-1.52 2.82-2.26.77-.73 1.16-1.35 1.16-1.83 0-.53-.33-.93-.99-1.21-.66-.28-1.37-.5-2.12-.65-.9-.15-1.92-.24-3.05-.28-2.9.04-5.45.25-7.65.62-2.2.38-4.08.81-5.62 1.3-1.81.56-3.37 1.19-4.69 1.86-.19.15-.36.23-.51.23-.11 0-.19-.06-.23-.17a.465.465 0 0 1-.06-.23c.11-.34.26-.7.45-1.07.19-.3.41-.61.68-.93.26-.32.6-.59 1.02-.82 1.17-.41 2.5-.79 4.01-1.13 1.32-.3 2.89-.57 4.72-.82 1.83-.24 3.91-.37 6.24-.37 1.24 0 2.53.05 3.87.14 1.34.09 2.57.26 3.7.51 1.13.25 2.06.57 2.8.96.73.4 1.1.89 1.1 1.5 0 .38-.16.9-.48 1.58-.32.68-1.18 1.49-2.57 2.43.04-.04-.64.41-2.03 1.36-1.39.94-3.5 2.13-6.32 3.56-.19.11-.43.26-.73.45s-.59.4-.87.62c-.28.23-.53.45-.73.68-.21.23-.31.45-.31.68 0 .19.04.37.11.54.07.17.26.37.56.59.26.23.58.49.96.79.64.53 1.54 1.17 2.71 1.92.45.3.88.64 1.3 1.02.3.3.59.67.88 1.1.28.43.42.91.42 1.44 0 .11-.07.39-.2.85-.13.45-.45 1.04-.96 1.75-.51.72-1.26 1.52-2.26 2.43-1 .9-2.4 1.84-4.21 2.82-1.73.98-3.65 1.86-5.76 2.65-1.81.68-3.93 1.33-6.38 1.95-2.45.62-5.12.97-8.02 1.05h-.28Zm5.87-9.09c.23-.49.49-1.06.79-1.72.3-.66.63-1.36.99-2.09.36-.73.73-1.49 1.13-2.26.39-.77.78-1.51 1.16-2.23.9-1.69 1.84-3.44 2.82-5.25.72-1.17 1.29-2.13 1.72-2.88.43-.75.76-1.34.99-1.75.26-.49.45-.87.56-1.13.19-.38.56-.73 1.1-1.05.54-.32 1.36-.52 2.46-.59.19 0 .41 0 .68.03.26.02.39.12.39.31s-.03.35-.08.48c-.06.13-.29.35-.71.65-.04.04-.09.08-.17.11-.08.04-.14.09-.2.17-.06.08-.14.17-.25.28-.6.72-1.39 1.83-2.37 3.33-.83 1.28-1.89 3.02-3.19 5.22-1.3 2.2-2.87 5.05-4.71 8.55-.38.79-.72 1.52-1.02 2.2-.26.64-.53 1.28-.79 1.92-.26.64-.43 1.19-.51 1.64-.04.3-.17.45-.39.45-.41 0-.72-.23-.9-.68-.19-.45-.28-.83-.28-1.13 0-.57.13-1.15.39-1.75.11-.3.24-.58.4-.85Z" fill="#070909" data-color="1"/>
        <path d="M262.4 147.71a.66.66 0 0 1-.17.28l-.11.11c-.19 0-.33-.06-.42-.2-.09-.13-.17-.28-.23-.45-.06-.17-.09-.33-.11-.48-.02-.15-.03-.24-.03-.28 0-.68.58-1.9 1.75-3.67.26-.37.51-.74.73-1.1.23-.36.43-.69.62-.99.19-.34.38-.64.57-.9 1.28-2.11 2.07-3.76 2.37-4.94.3-1.19.45-1.95.45-2.29v-.23s.02-.08.06-.11.07-.07.08-.11c.02-.04.07-.06.14-.06s.19.04.34.11c.3.08.55.19.73.34.19.11.35.27.48.48.13.21.22.48.25.82 0 .15-.05.41-.14.79-.09.38-.35.98-.76 1.81 0 .15.04.23.11.23.04 0 .09-.04.17-.11.68-.53 1.37-1.04 2.09-1.52.6-.41 1.27-.84 2-1.27s1.44-.8 2.12-1.1c.64-.3 1.3-.56 1.98-.79.6-.19 1.27-.37 2-.54.73-.17 1.48-.25 2.23-.25h.06l.11.06c0 .11-.19.28-.56.51-.64.19-1.48.56-2.51 1.1-1.04.55-2.2 1.23-3.5 2.06-1.3.83-2.67 1.81-4.12 2.94a60.715 60.715 0 0 0-4.38 3.78c-.71.9-1.37 1.73-1.98 2.49-.53.68-1.02 1.35-1.47 2-.45.66-.77 1.16-.96 1.5Z" fill="#070909" data-color="1"/>
        <path d="M279.57 144.72c0-.3.1-.72.31-1.27s.44-1.08.71-1.61c.3-.64.66-1.32 1.07-2.03.19-.3.36-.62.51-.96.15-.34.3-.66.45-.96l.51-1.02c.07-.19.15-.35.23-.48.07-.13.15-.25.23-.37.07-.15.15-.28.23-.39.08-.15.33-.3.76-.45.43-.15 1.14-.23 2.12-.23.11.04.23.09.34.17.07.08.16.15.25.23.09.08.14.15.14.23 0 .19-.08.36-.23.51-.15.15-.43.39-.85.73-.34.34-.72.81-1.13 1.41-.38.53-.83 1.2-1.36 2.03-.53.83-1.15 1.88-1.86 3.16-.19.6-.38 1.13-.57 1.58-.19.41-.37.77-.54 1.07-.17.3-.33.45-.48.45-.15-.04-.3-.13-.45-.28-.26-.26-.39-.77-.39-1.52Zm12.7-16.66c0 .45-.15.83-.45 1.13-.3.3-.62.55-.96.73-.41.19-.88.34-1.41.45-.23 0-.38-.13-.45-.39a.934.934 0 0 1-.11-.45.928.928 0 0 0-.25-.48c-.13-.13-.2-.24-.2-.31 0-.11.04-.27.11-.48.07-.21.26-.4.56-.59.19-.04.38-.08.56-.11.19-.04.38-.06.56-.08.19-.02.41-.03.68-.03.23 0 .51.03.85.08.34.06.51.24.51.54Z" fill="#070909" data-color="1"/>
        <path d="M290.8 152.23c-.26 0-.47-.16-.62-.48-.15-.32-.27-.67-.37-1.04-.09-.38-.16-.9-.2-1.58 0-.45.05-.89.14-1.3.09-.41.22-.77.37-1.07.15-.37.32-.73.51-1.07.45-.94 1.05-2.08 1.81-3.42.75-1.34 1.57-2.72 2.46-4.15.88-1.43 1.77-2.85 2.65-4.26.88-1.41 1.69-2.68 2.43-3.81.73-1.13 1.34-2.05 1.81-2.77.47-.71.72-1.09.76-1.13.71-1.13 1.32-2.11 1.81-2.94.49-.83.9-1.52 1.24-2.09.38-.68.7-1.24.96-1.69.11-.11.26-.24.45-.39.19-.08.42-.16.71-.25s.65-.14 1.1-.14h.37c.13 0 .27.02.42.06.07 0 .15.02.23.06.15.08.23.21.23.4 0 .11-.06.28-.17.51-1.24 2-2.57 3.95-3.98 5.87-1.41 1.92-2.88 3.97-4.4 6.15-1.52 2.18-3.08 4.58-4.66 7.2s-3.16 5.62-4.74 9.01c-.08.26-.14.58-.2.96s-.12.75-.2 1.13c-.08.38-.15.73-.23 1.07-.08.34-.15.58-.23.73l-.11.23c-.08.15-.19.23-.34.23Z" fill="#070909" data-color="1"/>
        <path d="M303.39 152.23c-.26 0-.47-.16-.62-.48s-.27-.67-.37-1.04c-.09-.38-.16-.9-.2-1.58 0-.45.05-.89.14-1.3.09-.41.22-.77.37-1.07.15-.37.32-.73.51-1.07.45-.94 1.05-2.08 1.81-3.42.75-1.34 1.57-2.72 2.46-4.15.88-1.43 1.77-2.85 2.65-4.26.88-1.41 1.69-2.68 2.43-3.81.73-1.13 1.34-2.05 1.81-2.77.47-.71.72-1.09.76-1.13.72-1.13 1.32-2.11 1.81-2.94.49-.83.9-1.52 1.24-2.09.38-.68.7-1.24.96-1.69.11-.11.26-.24.45-.39.19-.08.42-.16.71-.25.28-.09.65-.14 1.1-.14h.37c.13 0 .27.02.42.06.07 0 .15.02.23.06.15.08.23.21.23.4 0 .11-.06.28-.17.51-1.24 2-2.57 3.95-3.98 5.87-1.41 1.92-2.88 3.97-4.4 6.15-1.52 2.18-3.08 4.58-4.66 7.2s-3.16 5.62-4.74 9.01c-.08.26-.14.58-.2.96s-.12.75-.2 1.13c-.08.38-.15.73-.23 1.07-.08.34-.15.58-.23.73l-.11.23c-.08.15-.19.23-.34.23Z" fill="#070909" data-color="1"/>
        <path d="M316.26 144.72c0-.3.1-.72.31-1.27s.44-1.08.71-1.61c.3-.64.66-1.32 1.07-2.03.19-.3.36-.62.51-.96.15-.34.3-.66.45-.96l.51-1.02c.07-.19.15-.35.23-.48.07-.13.15-.25.23-.37.07-.15.15-.28.23-.39.08-.15.33-.3.76-.45.43-.15 1.14-.23 2.12-.23.11.04.23.09.34.17.07.08.16.15.25.23.09.08.14.15.14.23 0 .19-.08.36-.23.51-.15.15-.43.39-.85.73-.34.34-.71.81-1.13 1.41-.38.53-.83 1.2-1.36 2.03-.53.83-1.15 1.88-1.86 3.16-.19.6-.38 1.13-.57 1.58-.19.41-.37.77-.54 1.07-.17.3-.33.45-.48.45-.15-.04-.3-.13-.45-.28-.26-.26-.39-.77-.39-1.52Zm12.7-16.66c0 .45-.15.83-.45 1.13-.3.3-.62.55-.96.73-.41.19-.88.34-1.41.45-.23 0-.38-.13-.45-.39a.934.934 0 0 1-.11-.45.928.928 0 0 0-.25-.48c-.13-.13-.2-.24-.2-.31 0-.11.04-.27.11-.48.07-.21.26-.4.56-.59.19-.04.38-.08.56-.11.19-.04.38-.06.56-.08.19-.02.41-.03.68-.03.23 0 .51.03.85.08.34.06.51.24.51.54Z" fill="#070909" data-color="1"/>
        <path d="M333.56 145.82c-.73.51-1.36.91-1.89 1.21-.64.38-1.19.68-1.64.9-.49.23-.88.38-1.16.45s-.52.11-.71.11c-.26 0-.49-.08-.68-.23-.19-.15-.35-.32-.48-.51a1.87 1.87 0 0 1-.28-.59c-.06-.21-.08-.35-.08-.42 0-.49.23-1.16.68-2 .45-.85 1.03-1.77 1.72-2.77.7-1 1.5-1.99 2.4-2.99.9-1 1.8-1.91 2.68-2.74.88-.83 1.72-1.5 2.51-2.03.79-.53 1.45-.79 1.98-.79.23 0 .51.06.85.17.34.11.68.27 1.02.48.34.21.63.45.88.73.24.28.37.57.37.88 0 .19-.06.3-.17.34-.34 0-.58-.08-.73-.25-.15-.17-.55-.29-1.19-.37-.38 0-.9.2-1.58.59-.68.4-1.41.91-2.2 1.55-.79.64-1.59 1.36-2.4 2.15-.81.79-1.54 1.58-2.2 2.37-.66.79-1.2 1.53-1.61 2.23-.41.7-.62 1.27-.62 1.72 0 .15 0 .25.03.28.02.04.12.06.31.06.49 0 1.42-.43 2.8-1.3 1.37-.87 3.11-2.18 5.22-3.95.19-.23.36-.43.51-.62.3-.38.58-.75.85-1.13.07-.07.19-.15.34-.23.11-.08.26-.14.45-.2s.43-.08.73-.08c.19 0 .41.02.68.06.26.04.4.13.4.28.04.08 0 .19-.11.34-.15.26-.53.77-1.13 1.52-.49.64-.94 1.3-1.36 1.98-.38.6-.74 1.26-1.1 1.98s-.63 1.45-.82 2.2c0 .11-.02.19-.06.23l-.11.11c-.03.03-.08.06-.11.06-.3-.15-.49-.4-.56-.73-.08-.34-.11-.66-.11-.96 0-.53.06-.96.17-1.3.08-.19.15-.38.23-.56 0-.15-.04-.23-.11-.23-.04 0-.06 0-.06.03 0 .02-.02.03-.06.03l-.06.06c-.87.75-1.67 1.38-2.4 1.89Z" fill="#070909" data-color="1"/>
        <path d="M356.99 144.66c0-.26.02-.53.06-.79.04-.26.09-.49.17-.68.07-.23.17-.43.28-.62.41-.6.68-1.05.79-1.33s.17-.46.17-.54c0-.11-.09-.17-.28-.17-.38 0-.86.2-1.44.59-.58.39-1.21.87-1.86 1.44-.66.56-1.35 1.19-2.06 1.89-.72.7-1.4 1.33-2.06 1.89-.66.56-1.27 1.05-1.83 1.44-.56.39-1.04.59-1.41.59-.56-.19-.92-.54-1.07-1.07-.15-.53-.23-.92-.23-1.19 0-.53.09-1.12.28-1.78.19-.66.41-1.29.68-1.89.3-.68.64-1.37 1.02-2.09.41-.83.87-1.68 1.36-2.57.49-.88.94-1.7 1.36-2.46.49-.87 1-1.69 1.52-2.48.04-.07.23-.23.57-.45.34-.23.92-.34 1.75-.34.3 0 .49.02.56.06.07.04.11.11.11.23 0 .19-.14.56-.42 1.13-.28.56-.93 1.51-1.95 2.82-.9 1.24-1.69 2.39-2.37 3.44-.6.94-1.14 1.86-1.61 2.77-.47.9-.71 1.62-.71 2.15 0 .34.11.51.34.51.11 0 .27-.04.48-.11.21-.07.48-.26.82-.56 1.58-1.28 3.03-2.43 4.35-3.44.56-.45 1.13-.88 1.69-1.3.56-.41 1.1-.78 1.61-1.1.51-.32.97-.58 1.38-.79.41-.21.73-.31.96-.31.04 0 .17.02.39.06.23.04.46.1.71.2.24.09.46.22.65.37s.28.36.28.62c0 .19-.09.55-.28 1.07-.19.53-.66 1.28-1.41 2.26-.3.53-.58 1.04-.85 1.52-.23.41-.44.87-.65 1.36-.21.49-.33.89-.37 1.19 0 .11-.02.21-.06.28-.08.15-.15.23-.23.23-.26-.11-.47-.24-.62-.39-.15-.15-.28-.36-.39-.62-.11-.26-.17-.6-.17-1.02Z" fill="#070909" data-color="1"/>
        <path d="M367.97 150.7c-.04.11-.11.35-.23.71-.11.36-.25.71-.39 1.07-.15.36-.33.69-.54.99-.21.3-.4.45-.59.45-.11 0-.21-.08-.28-.23-.08-.15-.13-.33-.17-.54-.04-.21-.07-.4-.08-.59-.02-.19-.03-.34-.03-.45 0-.53.06-1.09.17-1.69.11-.6.24-1.17.4-1.69.15-.6.34-1.19.56-1.75a73.966 73.966 0 0 1 2.31-4.8c.53-1.02 1.09-2.08 1.69-3.19.6-1.11 1.18-2.15 1.72-3.13.55-.98 1.04-1.85 1.47-2.63.43-.77.74-1.33.93-1.67.07-.15.13-.24.17-.28.04-.04.06-.07.06-.11l-.17-.17s-.08-.06-.11-.06c-1.02.11-1.94.19-2.77.23-.83.04-1.68.06-2.54.06-.41-.04-.77-.17-1.07-.4-.3-.23-.55-.49-.73-.79-.23-.34-.41-.72-.56-1.13 0-.04.02-.09.06-.17.07-.15.19-.23.34-.23s.38.08.68.23c.11.11.3.21.56.28.23.08.54.13.93.17.4.04.95.06 1.67.06 1.13 0 2.77-.11 4.91-.34.07.04.15.04.23 0 .07 0 .19-.07.34-.23.07-.07.42-.56 1.04-1.47.62-.9 1.27-2.01 1.95-3.33.41-.6.78-1.17 1.1-1.69.32-.53.67-.98 1.04-1.36.38-.38.83-.67 1.36-.87.53-.21 1.2-.31 2.03-.31h.06c.07 0 .11.06.11.17 0 .08-.04.21-.11.4-.08.19-.23.45-.45.79-.23.34-.54.77-.93 1.3s-.91 1.17-1.55 1.92c-.38.49-.73.98-1.07 1.47-.3.41-.61.86-.93 1.33-.32.47-.57.88-.76 1.21 0 .19.11.28.34.28.34.04.75.02 1.24-.06.41-.04.92-.1 1.52-.2.6-.09 1.32-.23 2.15-.42.26-.04.55-.07.85-.11.26-.04.54-.06.82-.08.28-.02.57-.03.87-.03.49 0 .83.06 1.02.17.08.04.17.13.28.28.07.11.15.26.23.45.07.19.11.43.11.73 0 .08-.03.17-.08.28-.06.11-.12.17-.2.17-.15 0-.35-.05-.59-.14-.25-.09-.76-.14-1.55-.14-1.28 0-2.51.11-3.7.34-1.19.23-2.64.43-4.38.62-.04 0-.09.02-.17.06-.15.08-.25.15-.28.23-1.32 1.92-2.6 3.88-3.84 5.87a98.82 98.82 0 0 0-3.19 5.51c-1.07 1.98-1.95 3.83-2.62 5.56-.19.3-.3.71-.34 1.24-.04.53-.13 1.15-.28 1.86Z" fill="#070909" data-color="1"/>
        <path d="M382.84 152.23c-.26 0-.47-.16-.62-.48-.15-.32-.27-.67-.37-1.04-.09-.38-.16-.9-.2-1.58 0-.45.05-.89.14-1.3.09-.41.22-.77.37-1.07.15-.37.32-.73.51-1.07.45-.94 1.05-2.08 1.81-3.42.75-1.34 1.57-2.72 2.46-4.15.88-1.43 1.77-2.85 2.65-4.26.88-1.41 1.69-2.68 2.43-3.81.73-1.13 1.34-2.05 1.81-2.77.47-.71.72-1.09.76-1.13.71-1.13 1.32-2.11 1.81-2.94.49-.83.9-1.52 1.24-2.09.38-.68.7-1.24.96-1.69.11-.11.26-.24.45-.39.19-.08.42-.16.71-.25s.65-.14 1.1-.14h.37c.13 0 .27.02.42.06.07 0 .15.02.23.06.15.08.23.21.23.4 0 .11-.06.28-.17.51-1.24 2-2.57 3.95-3.98 5.87-1.41 1.92-2.88 3.97-4.4 6.15-1.52 2.18-3.08 4.58-4.66 7.2s-3.16 5.62-4.74 9.01c-.08.26-.14.58-.2.96s-.12.75-.2 1.13c-.08.38-.15.73-.23 1.07-.08.34-.15.58-.23.73l-.11.23c-.08.15-.19.23-.34.23Z" fill="#070909" data-color="1"/>
        <path d="M405.68 143.08c0-.15-.04-.23-.11-.23-.04 0-.06 0-.06.03s-.02.03-.06.03h-.06c-1.43 1.17-2.65 2.05-3.64 2.65-1 .6-1.82 1.06-2.46 1.36-.75.34-1.38.53-1.86.57-.38 0-.68-.12-.9-.37-.23-.25-.4-.51-.54-.79-.13-.28-.23-.55-.28-.79-.06-.24-.08-.38-.08-.42 0-1.39.34-2.84 1.02-4.35.68-1.51 1.45-2.9 2.32-4.18a36.65 36.65 0 0 1 3.33-4.35c.38-.3.63-.5.76-.59.13-.09.46-.14.99-.14.04 0 .15.01.34.03.19.02.39.06.59.11.21.06.39.12.54.2.15.08.23.19.23.34s-.17.34-.51.56c-.68.49-1.48 1.27-2.4 2.34-.92 1.07-1.8 2.22-2.63 3.44a33.58 33.58 0 0 0-2.12 3.56c-.58 1.15-.87 2.02-.87 2.63 0 .19.03.35.08.48.06.13.25.2.59.2.53 0 1.2-.2 2.03-.59.83-.39 1.69-.88 2.6-1.44.9-.56 1.78-1.17 2.63-1.81.85-.64 1.53-1.22 2.06-1.75.19-.15.36-.34.51-.56.15-.19.32-.42.51-.71.19-.28.39-.59.62-.93.11-.11.25-.23.4-.34.15-.07.34-.15.56-.23s.51-.11.85-.11c.3 0 .64.05 1.02.14.37.09.56.29.56.59-.64.83-1.22 1.61-1.75 2.34s-1.05 1.49-1.58 2.26c-.53.77-1.06 1.6-1.61 2.48-.55.89-1.15 1.89-1.81 3.02-.66 1.13-1.41 2.42-2.26 3.87-.85 1.45-1.82 3.11-2.91 5-.08.15-.3.56-.68 1.24-.38.68-.79 1.42-1.24 2.23-.45.81-.88 1.58-1.27 2.32-.4.73-.67 1.23-.82 1.5-.19.3-.38.45-.57.45-.23 0-.36-.16-.39-.48-.04-.32-.06-.56-.06-.71 0-.34.04-.69.11-1.04.07-.36.17-.73.28-1.1.23-.72.55-1.31.99-1.78.43-.47.72-.88.87-1.21.45-.9 1.1-2.13 1.95-3.67.85-1.54 1.7-3.1 2.57-4.66.87-1.56 1.64-2.97 2.31-4.23.68-1.26 1.11-2.06 1.3-2.4Z" fill="#070909" data-color="1"/>
    </g>
</svg>
